<svg id="Group_70" data-name="Group 70" xmlns="http://www.w3.org/2000/svg" xmlns:xlink="http://www.w3.org/1999/xlink" width="659.347" height="599.37" viewBox="0 0 659.347 599.37">
  <defs>
    <clipPath id="clip-path">
      <rect id="Rectangle_30" data-name="Rectangle 30" width="659.347" height="599.37" fill="none"/>
    </clipPath>
    <clipPath id="clip-path-2">
      <path id="Path_103" data-name="Path 103" d="M121.751,298.319a17.64,17.64,0,0,1-1.079,10.336L70.189,427.1l79.139-116.38a17.636,17.636,0,0,0,2.236-15.223L70.189,37.348Z" transform="translate(-70.189 -37.348)" fill="none"/>
    </clipPath>
    <clipPath id="clip-path-4">
      <path id="Path_107" data-name="Path 107" d="M.816,295.5a17.641,17.641,0,0,0,2.237,15.223L82.192,427.1,31.708,308.655a17.63,17.63,0,0,1-1.077-10.336L82.192,37.348Z" transform="translate(0 -37.348)" fill="none"/>
    </clipPath>
  </defs>
  <g id="Group_60" data-name="Group 60" transform="translate(0)">
    <g id="Group_59" data-name="Group 59" clip-path="url(#clip-path)">
      <path id="Path_100" data-name="Path 100" d="M70.189,427.1l50.484-118.448a17.65,17.65,0,0,0,1.078-10.336L70.189,37.348,151.565,295.5a17.645,17.645,0,0,1-2.237,15.223Z" transform="translate(12.683 6.749)" fill="#d8001a"/>
    </g>
  </g>
  <g id="Group_62" data-name="Group 62" transform="translate(82.872 44.097)">
    <g id="Group_61" data-name="Group 61" clip-path="url(#clip-path-2)">
      <path id="Path_101" data-name="Path 101" d="M57.736,462.209l76.5-139.365a47.048,47.048,0,0,0,4.149-35.009L60.219,1Z" transform="translate(-72.439 -43.916)" fill="#932230"/>
      <path id="Path_102" data-name="Path 102" d="M60.4,0A1.18,1.18,0,0,1,61.538.87L139.7,287.706a47.989,47.989,0,0,1-4.253,35.887l-76.5,139.365a1.181,1.181,0,0,1-2.215-.575L59.218,1.174A1.181,1.181,0,0,1,60.245.01,1.148,1.148,0,0,1,60.4,0m-1.278,457.74,74.253-135.283a45.627,45.627,0,0,0,4.045-34.129L61.533,9.834Z" transform="translate(-72.62 -44.097)" fill="#e50019"/>
    </g>
  </g>
  <g id="Group_64" data-name="Group 64" transform="translate(0)">
    <g id="Group_63" data-name="Group 63" clip-path="url(#clip-path)">
      <path id="Path_104" data-name="Path 104" d="M82.192,427.1,31.708,308.655a17.65,17.65,0,0,1-1.078-10.336L82.192,37.348.816,295.5a17.644,17.644,0,0,0,2.237,15.223Z" transform="translate(0 6.749)" fill="#d8001a"/>
    </g>
  </g>
  <g id="Group_66" data-name="Group 66" transform="translate(0 44.097)">
    <g id="Group_65" data-name="Group 65" clip-path="url(#clip-path-4)">
      <path id="Path_105" data-name="Path 105" d="M162.42,595.675,17.928,310.738a30.465,30.465,0,0,1-2.379-21.183L84.623,13.923Z" transform="translate(2.645 -41.581)" fill="#932230"/>
      <path id="Path_106" data-name="Path 106" d="M84.8,12.922l.068,0a1.18,1.18,0,0,1,1.1,1.021l77.8,581.752a1.181,1.181,0,0,1-2.223.691L17.057,311.451a31.642,31.642,0,0,1-2.472-22L83.659,13.816a1.18,1.18,0,0,1,1.144-.894m75.706,576.2L84.451,20.37,16.875,290.023a29.286,29.286,0,0,0,2.287,20.361Z" transform="translate(2.464 -41.762)" fill="#e50019"/>
    </g>
  </g>
  <g id="Group_68" data-name="Group 68" transform="translate(0)">
    <g id="Group_67" data-name="Group 67" clip-path="url(#clip-path)">
      <path id="Path_108" data-name="Path 108" d="M70.187,317.837l8.8-36.588,10.593,3.082Z" transform="translate(12.683 50.822)" fill="#932230"/>
      <path id="Path_109" data-name="Path 109" d="M79.164,280.25a1.174,1.174,0,0,1,.331.047l10.593,3.083a1.179,1.179,0,0,1,.692,1.724L71.389,318.61a1.181,1.181,0,0,1-2.17-.867l8.8-36.588a1.179,1.179,0,0,1,1.148-.906m8.817,4.975-7.958-2.315L73.414,310.4Z" transform="translate(12.502 50.641)" fill="#e50019"/>
      <path id="Path_110" data-name="Path 110" d="M70.187,245.041l19.391,45.834-10.593-3.082Z" transform="translate(12.683 44.279)" fill="#ac273a"/>
      <path id="Path_111" data-name="Path 111" d="M70.368,244.041a1.179,1.179,0,0,1,1.087.72l19.391,45.834a1.181,1.181,0,0,1-1.417,1.594l-10.594-3.083a1.179,1.179,0,0,1-.826-.895l-8.8-42.752a1.182,1.182,0,0,1,.806-1.366,1.2,1.2,0,0,1,.349-.052M87.7,289.228,73.929,256.669l6.249,30.37Z" transform="translate(12.502 44.098)" fill="#e50019"/>
      <path id="Path_112" data-name="Path 112" d="M53.985,290.875l19.13-45.834-8.923,41.591Z" transform="translate(9.755 44.279)" fill="#ea7d8b"/>
      <path id="Path_113" data-name="Path 113" d="M73.3,244.041a1.193,1.193,0,0,1,.353.054,1.178,1.178,0,0,1,.8,1.374l-8.921,41.592a1.18,1.18,0,0,1-.7.842l-10.208,4.242a1.18,1.18,0,0,1-1.542-1.544l19.13-45.835a1.179,1.179,0,0,1,1.09-.726m-9.947,41.92,6.11-28.479-13.1,31.384Z" transform="translate(9.574 44.098)" fill="#d11c1b"/>
      <path id="Path_114" data-name="Path 114" d="M53.985,284.509l10.207-4.242L74.4,287.2l-1.285,30.81Z" transform="translate(9.755 50.644)" fill="#f2919c"/>
      <path id="Path_115" data-name="Path 115" d="M64.373,279.267a1.187,1.187,0,0,1,.664.2l10.207,6.938a1.181,1.181,0,0,1,.515,1.026l-1.283,30.81a1.181,1.181,0,0,1-2.206.536L53.14,285.276a1.181,1.181,0,0,1,.573-1.677l10.207-4.241a1.185,1.185,0,0,1,.453-.091m9,8.727-9.135-6.21-8.383,3.483,16.432,28.781Z" transform="translate(9.574 50.463)" fill="#e50019"/>
      <path id="Path_116" data-name="Path 116" d="M62.63,286.633l8.923-41.592,8.8,42.752-7.512,5.778Z" transform="translate(11.317 44.279)" fill="#e34357"/>
      <path id="Path_117" data-name="Path 117" d="M71.643,244.541h0a.59.59,0,0,1,.576.471l8.8,42.752a.591.591,0,0,1-.218.588l-7.512,5.777a.587.587,0,0,1-.692.02l-10.206-6.938a.593.593,0,0,1-.246-.612l8.921-41.591a.592.592,0,0,1,.579-.468m8.143,43.1L71.631,248,63.38,286.458l9.525,6.474Z" transform="translate(11.227 44.188)" fill="#d11c1b"/>
      <path id="Path_118" data-name="Path 118" d="M70.187,317.837l1.285-30.81,7.513-5.777Z" transform="translate(12.683 50.822)" fill="#e66878"/>
      <path id="Path_119" data-name="Path 119" d="M79.164,280.25a1.181,1.181,0,0,1,1.149,1.456l-8.8,36.588a1.181,1.181,0,0,1-2.328-.325l1.285-30.81a1.184,1.184,0,0,1,.46-.887l7.512-5.777a1.176,1.176,0,0,1,.719-.244m-7.111,25.711L77.236,284.4l-4.426,3.4Z" transform="translate(12.502 50.641)" fill="#e50019"/>
      <path id="Path_120" data-name="Path 120" d="M213.562,213.782a1.325,1.325,0,0,1,1.337,1.337v32.77c0,13.91-7.466,21.217-21.689,21.217-14.067,0-21.534-7.307-21.689-21.217v-32.77a1.376,1.376,0,0,1,1.334-1.337h13.518a1.325,1.325,0,0,1,1.337,1.337V249.3c0,3.614,2.043,5.736,5.5,5.736s5.5-2.122,5.5-5.658V215.119a1.376,1.376,0,0,1,1.335-1.337Z" transform="translate(30.993 38.63)" fill="#0a1225"/>
      <path id="Path_121" data-name="Path 121" d="M259.069,213.782a1.157,1.157,0,0,1,1.18,1.18v51.945a1.142,1.142,0,0,1-1.18,1.1h-13.6a2.141,2.141,0,0,1-1.649-1.021l-13.674-24.442v24.363a1.143,1.143,0,0,1-1.18,1.1H215.062a1.124,1.124,0,0,1-1.1-1.1V214.961a1.142,1.142,0,0,1,1.1-1.18h13.595a2.076,2.076,0,0,1,1.807,1.021l13.6,24.44V214.961a1.2,1.2,0,0,1,1.1-1.18Z" transform="translate(38.663 38.63)" fill="#0a1225"/>
      <path id="Path_122" data-name="Path 122" d="M301.632,263.392c.236.551-.078,1.1-.707,1.414a32.463,32.463,0,0,1-16.5,4.559c-16.189,0-27.035-11.316-27.035-28.291s10.846-28.291,27.035-28.291a32.475,32.475,0,0,1,16.5,4.557c.629.315.943.864.707,1.415l-5.187,10.923a1.02,1.02,0,0,1-1.492.629,17.417,17.417,0,0,0-9.116-2.2c-7.072,0-11.788,5.188-11.788,12.968s4.716,12.966,11.788,12.966a17.417,17.417,0,0,0,9.116-2.2,1.02,1.02,0,0,1,1.492.629Z" transform="translate(46.51 38.45)" fill="#0a1225"/>
      <path id="Path_123" data-name="Path 123" d="M339.743,213.782a1.325,1.325,0,0,1,1.337,1.337v32.77c0,13.91-7.466,21.217-21.689,21.217-14.067,0-21.534-7.307-21.69-21.217v-32.77a1.376,1.376,0,0,1,1.334-1.337h13.518a1.325,1.325,0,0,1,1.337,1.337V249.3c0,3.614,2.043,5.736,5.5,5.736s5.5-2.122,5.5-5.658V215.119a1.376,1.376,0,0,1,1.335-1.337Z" transform="translate(53.794 38.63)" fill="#0a1225"/>
      <path id="Path_124" data-name="Path 124" d="M379.722,213.782a1.027,1.027,0,0,1,1.1,1.1l-1.178,11.945a1.334,1.334,0,0,1-1.257,1.1h-11.71v38.98a1.124,1.124,0,0,1-1.1,1.1H351.666a1.2,1.2,0,0,1-1.178-1.1v-38.98H337.442a1.123,1.123,0,0,1-1.1-1.1V214.961a1.2,1.2,0,0,1,1.1-1.18Z" transform="translate(60.777 38.63)" fill="#0a1225"/>
      <path id="Path_125" data-name="Path 125" d="M431.54,234.957a1.2,1.2,0,0,1,1.178,1.1v24.991a2.6,2.6,0,0,1-.942,1.886c-4.716,4.007-11.946,6.365-19.49,6.365C395.313,269.3,384,257.983,384,241.008s11.317-28.291,28.291-28.291a32.47,32.47,0,0,1,16.5,4.557,1.216,1.216,0,0,1,.708,1.416l-3.929,11.552a1.2,1.2,0,0,1-1.494.628,24.807,24.807,0,0,0-11.317-2.751c-7.229,0-12.1,5.187-12.1,12.888,0,7.859,4.873,13.046,12.1,13.046,2.908,0,4.873-.55,5.738-1.494V248h-7.231c-.707,0-1.178-.315-1.257-.865l-1.021-10.844a1.145,1.145,0,0,1,1.256-1.337Zm-12.573,16.425v0Z" transform="translate(69.388 38.438)" fill="#0a1225"/>
      <path id="Path_126" data-name="Path 126" d="M468.4,253.861a1.133,1.133,0,0,1,1.18,1.021v12.024a1.2,1.2,0,0,1-1.18,1.1H431.856c-.55,0-1.1-.628-1.259-1.178V214.881a1,1,0,0,1,1.1-1.1h35.756a1.218,1.218,0,0,1,1.257,1.1v11.867a1.178,1.178,0,0,1-1.257,1.178H446.944v6.209H463.6a.944.944,0,0,1,1.022,1.021l-1.1,11a1.38,1.38,0,0,1-1.337,1.021H446.944v6.679Z" transform="translate(77.808 38.63)" fill="#0a1225"/>
      <path id="Path_127" data-name="Path 127" d="M529.377,213.782a1.143,1.143,0,0,1,1.1,1.18v51.945a1.125,1.125,0,0,1-1.1,1.1H514.839a1.2,1.2,0,0,1-1.18-1.1V243.8l-7.937,23.026a2.387,2.387,0,0,1-1.965,1.178h-8.645a2.385,2.385,0,0,1-1.965-1.178L485.212,243.8v23.1a1.2,1.2,0,0,1-1.178,1.1H469.494a1.124,1.124,0,0,1-1.1-1.1V214.961a1.142,1.142,0,0,1,1.1-1.18h16.423a3.321,3.321,0,0,1,2.673,1.572l10.845,30.02,10.845-30.02a3.325,3.325,0,0,1,2.672-1.572Z" transform="translate(84.638 38.63)" fill="#0a1225"/>
      <path id="Path_128" data-name="Path 128" d="M531.072,251.683c.236-.785.786-1.021,1.414-.628a29.721,29.721,0,0,0,10.924,3.771c2.515,0,4.166-1.178,4.166-2.986,0-4.637-22.084-4.4-22.084-21.532,0-10.529,7.938-17.524,19.883-17.524a34.042,34.042,0,0,1,17.6,5.658c.629.393.864,1.021.629,1.414l-4.952,11.081c-.235.785-.785,1.021-1.415.628-3.85-2.2-8.33-3.85-11.081-4.086-2.436,0-4.007,1.1-4.007,2.829,0,4.637,22.24,4.323,22.24,21.612,0,10.452-8.095,17.446-20.2,17.446-6.6,0-13.517-2.044-17.445-5.187-.629-.471-.865-1.021-.629-1.414Z" transform="translate(94.956 38.45)" fill="#0a1225"/>
    </g>
  </g>
</svg>
